<svg height="512" viewBox="0 0 64 64" width="512" xmlns="http://www.w3.org/2000/svg"><path d="m55 15v30h-46v-30a2.006 2.006 0 0 1 2-2h42a2.006 2.006 0 0 1 2 2z" fill="#5aaae7"/><path d="m53 13v28a2.006 2.006 0 0 1 -2 2h-34a2.006 2.006 0 0 1 -2-2h34a2.006 2.006 0 0 0 2-2v-26z" fill="#3d9ae2"/><path d="m55 45h-46l-6 12h21 16 21z" fill="#acabb1"/><path d="m51 9v30a2.006 2.006 0 0 1 -2 2h-34a2.006 2.006 0 0 1 -2-2v-30z" fill="#ffde55"/><path d="m61 57v3a1 1 0 0 1 -1 1h-56a1 1 0 0 1 -1-1v-3z" fill="#898890"/><path d="m51 5v4h-38v-4a2.006 2.006 0 0 1 2-2h34a2.006 2.006 0 0 1 2 2z" fill="#ff5023"/><path d="m47 27v4h-3-3v-4h3z" fill="#00ccb3"/><path d="m38 53 2 4h-16l2-4z" fill="#c6c5ca"/><path d="m36 13v4h-4-4v-4z" fill="#ee8700"/><path d="m35 35v2h-6v-2-2h3 3z" fill="#ff5023"/><path d="m29.879 21.879h4.243v4.243h-4.243z" fill="#ff9811" transform="matrix(.707 -.707 .707 .707 -7.598 29.657)"/><path d="m23 27v4h-3-3v-4h3z" fill="#5aaae7"/><path d="m61.9 56.553-5.9-11.789v-29.764a3 3 0 0 0 -3-3h-1v-7a3 3 0 0 0 -3-3h-34a3 3 0 0 0 -3 3v7h-1a3 3 0 0 0 -3 3v29.764l-5.895 11.789a1 1 0 0 0 -.105.447v3a2 2 0 0 0 2 2h56a2 2 0 0 0 2-2v-3a1 1 0 0 0 -.1-.447zm-21.282-.553-1.718-3.447a1 1 0 0 0 -.9-.553h-12a1 1 0 0 0 -.895.553l-1.723 3.447h-18.764l5-10h44.764l5 10zm-2.236 0h-12.764l1-2h10.764zm-24.382-46h36v29a1 1 0 0 1 -1 1h-34a1 1 0 0 1 -1-1zm1-6h34a1 1 0 0 1 1 1v3h-36v-3a1 1 0 0 1 1-1zm-5 11a1 1 0 0 1 1-1h1v25a3 3 0 0 0 3 3h34a3 3 0 0 0 3-3v-25h1a1 1 0 0 1 1 1v29h-44zm-6 45v-2h56v2z"/><path d="m10 52h2v2h-2z"/><path d="m14 52h2v2h-2z"/><path d="m48 52h2v2h-2z"/><path d="m52 52h2v2h-2z"/><path d="m15 48h2v2h-2z"/><path d="m11 48h2v2h-2z"/><path d="m19 48h2v2h-2z"/><path d="m23 48h2v2h-2z"/><path d="m27 48h2v2h-2z"/><path d="m31 48h2v2h-2z"/><path d="m35 48h2v2h-2z"/><path d="m39 48h2v2h-2z"/><path d="m43 48h2v2h-2z"/><path d="m47 48h2v2h-2z"/><path d="m51 48h2v2h-2z"/><path d="m18 52h4v2h-4z"/><path d="m42 52h4v2h-4z"/><path d="m17 32h2v3a1 1 0 0 0 1 1h8v1a1 1 0 0 0 1 1h6a1 1 0 0 0 1-1v-1h8a1 1 0 0 0 1-1v-3h2a1 1 0 0 0 1-1v-4a1 1 0 0 0 -1-1h-2v-2a1 1 0 0 0 -1-1h-8.586l-2.414-2.414v-2.586h3a1 1 0 0 0 1-1v-4a1 1 0 0 0 -1-1h-8a1 1 0 0 0 -1 1v4a1 1 0 0 0 1 1h3v2.586l-2.414 2.414h-8.586a1 1 0 0 0 -1 1v2h-2a1 1 0 0 0 -1 1v4a1 1 0 0 0 1 1zm12-18h6v2h-6zm5 22h-4v-2h4zm12-6h-4v-2h4zm-3-4h-2a1 1 0 0 0 -1 1v4a1 1 0 0 0 1 1h2v2h-7v-1a1 1 0 0 0 -1-1h-2v-4.586l2.414-2.414h7.586zm-11-3.586 1.586 1.586-1.586 1.586-1.586-1.586zm-11 2.586h7.586l2.414 2.414v4.586h-2a1 1 0 0 0 -1 1v1h-7v-2h2a1 1 0 0 0 1-1v-4a1 1 0 0 0 -1-1h-2zm-3 3h4v2h-4z"/><path d="m16 5h2v2h-2z"/><path d="m20 5h2v2h-2z"/><path d="m24 5h2v2h-2z"/></svg>